# xmcd
#
# Track frame offsets: 
#        150
#        23265
#        45060
#        77166
#        100216
#        124262
#        145943
#        172656
#        181136
#        202135
#
# Disc length: 3022 seconds
#
# Revision: 0
# Processed by: cddbd v1.5.2PL0 Copyright (c) Steve Scherf et al.
# Submitted via: ExactAudioCopy v0.95b4
#
DISCID=720bcc0a
DTITLE=Jackie Leven and Michael Cosgrave - Wayside Shrines And The Cod
DTITLE=e Of The Travelling Man
DYEAR=2011
DGENRE=Celtic
TTITLE0=Swine Flu Fever Blues
TTITLE1=To Live And Die In Levenland
TTITLE2=Deep Purple Cloak
TTITLE3=Beware Soul, Brother
TTITLE4=Spooky Berlin Hotel Song
TTITLE5=Townes At The Borderline
TTITLE6=The Kirkcaldy Book Of The Dead
TTITLE7=Dagenham Dream
TTITLE8=A Kiss On The Cheek
TTITLE9=Backstage, Chelsea Club, Vienna
EXTD=
EXTT0=
EXTT1=
EXTT2=
EXTT3=
EXTT4=
EXTT5=
EXTT6=
EXTT7=
EXTT8=
EXTT9=
PLAYORDER=
